M48
; DRILL file {KiCad (5.1.7)-1} date 01/29/21 19:27:46
; FORMAT={3:3/ absolute / metric / suppress leading zeros}
; #@! TF.CreationDate,2021-01-29T19:27:46+01:00
; #@! TF.GenerationSoftware,Kicad,Pcbnew,(5.1.7)-1
; #@! TF.FileFunction,Plated,1,2,PTH
FMAT,2
METRIC,TZ
T1C0.300
T2C0.400
T3C0.750
T4C0.800
T5C0.900
T6C1.000
T7C1.100
%
G90
G05
T1
X118872Y-54864
X118872Y-56388
X118872Y-57912
X122047Y-54864
X122047Y-56388
X122047Y-57912
X123889Y-60579
X123952Y-76962
X124460Y-61658
X124841Y-78740
X125476Y-62167
X125667Y-60515
X125730Y-80518
X126746Y-62230
X127127Y-60706
X127381Y-54864
X127381Y-56388
X127381Y-57912
X128397Y-62040
X128778Y-60262
X129413Y-83185
X129476Y-85662
X129476Y-88202
X129921Y-61468
X130619Y-59246
X130683Y-54864
X130683Y-56388
X130683Y-57912
X130861Y-102311
X131255Y-60643
X131572Y-101727
X131699Y-58166
X131953Y-79248
X131953Y-81788
X131953Y-114808
X132651Y-59372
X132715Y-57150
X134112Y-85598
X134112Y-88138
X134112Y-90678
X134874Y-72517
X134874Y-73406
X134874Y-74422
X136525Y-58928
X139319Y-109601
X141249Y-113386
X141266Y-81449
X142071Y-80645
X142071Y-110837
X142875Y-108585
X143764Y-109601
X147320Y-63881
X148209Y-57023
X148209Y-61087
X148209Y-62992
X148654Y-65849
X148717Y-70993
X148781Y-67755
X148781Y-69787
X149225Y-77724
X149479Y-110871
X153352Y-125349
X158242Y-125349
T2
X122047Y-75184
X152400Y-74041
X158877Y-74041
T3
X117348Y-131763
X117348Y-133033
X117348Y-134302
T4
X160855Y-80264
X165735Y-80264
X147828Y-117856
X155448Y-117856
X147828Y-127000
X155448Y-127000
X139700Y-136017
X144700Y-136017
X147828Y-120904
X155448Y-120904
X116840Y-119888
X116840Y-127508
X124968Y-130556
X124968Y-135556
X159258Y-127000
X166878Y-127000
X144526Y-93004
X144526Y-95504
X157734Y-71755
X165354Y-71755
X121895Y-130560
X121895Y-135560
X159893Y-109728
X167513Y-109728
X147955Y-79121
X147955Y-81661
X147955Y-84201
X147955Y-86741
X147955Y-89281
X147955Y-91821
X147955Y-94361
X147955Y-96901
X147955Y-99441
X147955Y-101981
X147955Y-104521
X147955Y-107061
X147955Y-109601
X147955Y-112141
X155575Y-79121
X155575Y-81661
X155575Y-84201
X155575Y-86741
X155575Y-89281
X155575Y-91821
X155575Y-94361
X155575Y-96901
X155575Y-99441
X155575Y-101981
X155575Y-104521
X155575Y-107061
X155575Y-109601
X155575Y-112141
X137668Y-118554
X137668Y-126174
X157734Y-68707
X165354Y-68707
X125032Y-93512
X125032Y-96012
X134620Y-118554
X134620Y-126174
X147828Y-123952
X155448Y-123952
X159385Y-84709
X161885Y-84709
X143764Y-118554
X143764Y-126174
X140716Y-118554
X140716Y-126174
X165100Y-84709
X167600Y-84709
X128270Y-79248
X128270Y-81788
X128270Y-84328
X128270Y-86868
X128270Y-89408
X128270Y-91948
X128270Y-94488
X128270Y-97028
X128270Y-99568
X128270Y-102108
X128270Y-104648
X128270Y-107188
X128270Y-109728
X128270Y-112268
X135890Y-79248
X135890Y-81788
X135890Y-84328
X135890Y-86868
X135890Y-89408
X135890Y-91948
X135890Y-94488
X135890Y-97028
X135890Y-99568
X135890Y-102108
X135890Y-104648
X135890Y-107188
X135890Y-109728
X135890Y-112268
T5
X163830Y-59309
X166370Y-59309
X156464Y-59309
X159004Y-59309
T6
X166370Y-115824
X166370Y-118364
X166370Y-120904
X129172Y-64961
X129172Y-67501
X129172Y-70041
X119126Y-79248
X119126Y-81788
X119126Y-84328
X121666Y-79248
X121666Y-81788
X121666Y-84328
X129834Y-133604
X132334Y-133604
X160528Y-114554
X160528Y-117094
X160528Y-119634
X160528Y-122174
X156464Y-64897
X159004Y-64897
X119126Y-88392
X119126Y-90932
X119126Y-93472
X121666Y-88392
X121666Y-90932
X121666Y-93472
X163703Y-64897
X166243Y-64897
X138176Y-75184
X140716Y-75184
X143256Y-75184
X145796Y-75184
X119050Y-64961
X119050Y-67501
X119050Y-70041
X121590Y-64961
X121590Y-67501
X121590Y-70041
T7
X159870Y-130120
X159870Y-134620
X166370Y-130120
X166370Y-134620
X120142Y-120142
X120142Y-127762
X148440Y-130120
X148440Y-134620
X154940Y-130120
X154940Y-134620
X118110Y-117348
X120650Y-117348
X123190Y-117348
X123698Y-120142
X123698Y-127762
X139700Y-99799
X139700Y-106299
X144200Y-99799
X144200Y-106299
X161036Y-106807
X163576Y-106807
X166116Y-106807
T0
M30
