G04 #@! TF.GenerationSoftware,KiCad,Pcbnew,(5.1.7)-1*
G04 #@! TF.CreationDate,2021-01-29T19:27:48+01:00*
G04 #@! TF.ProjectId,powiloc,706f7769-6c6f-4632-9e6b-696361645f70,rev?*
G04 #@! TF.SameCoordinates,Original*
G04 #@! TF.FileFunction,Legend,Top*
G04 #@! TF.FilePolarity,Positive*
%FSLAX46Y46*%
G04 Gerber Fmt 4.6, Leading zero omitted, Abs format (unit mm)*
G04 Created by KiCad (PCBNEW (5.1.7)-1) date 2021-01-29 19:27:48*
%MOMM*%
%LPD*%
G01*
G04 APERTURE LIST*
%ADD10C,0.150000*%
%ADD11C,0.120000*%
G04 APERTURE END LIST*
D10*
X119864380Y-96718380D02*
X119292952Y-96718380D01*
X119578666Y-96718380D02*
X119578666Y-95718380D01*
X119483428Y-95861238D01*
X119388190Y-95956476D01*
X119292952Y-96004095D01*
X120483428Y-95718380D02*
X120578666Y-95718380D01*
X120673904Y-95766000D01*
X120721523Y-95813619D01*
X120769142Y-95908857D01*
X120816761Y-96099333D01*
X120816761Y-96337428D01*
X120769142Y-96527904D01*
X120721523Y-96623142D01*
X120673904Y-96670761D01*
X120578666Y-96718380D01*
X120483428Y-96718380D01*
X120388190Y-96670761D01*
X120340571Y-96623142D01*
X120292952Y-96527904D01*
X120245333Y-96337428D01*
X120245333Y-96099333D01*
X120292952Y-95908857D01*
X120340571Y-95813619D01*
X120388190Y-95766000D01*
X120483428Y-95718380D01*
X121435809Y-95718380D02*
X121531047Y-95718380D01*
X121626285Y-95766000D01*
X121673904Y-95813619D01*
X121721523Y-95908857D01*
X121769142Y-96099333D01*
X121769142Y-96337428D01*
X121721523Y-96527904D01*
X121673904Y-96623142D01*
X121626285Y-96670761D01*
X121531047Y-96718380D01*
X121435809Y-96718380D01*
X121340571Y-96670761D01*
X121292952Y-96623142D01*
X121245333Y-96527904D01*
X121197714Y-96337428D01*
X121197714Y-96099333D01*
X121245333Y-95908857D01*
X121292952Y-95813619D01*
X121340571Y-95766000D01*
X121435809Y-95718380D01*
X122197714Y-96051714D02*
X122197714Y-96718380D01*
X122197714Y-96146952D02*
X122245333Y-96099333D01*
X122340571Y-96051714D01*
X122483428Y-96051714D01*
X122578666Y-96099333D01*
X122626285Y-96194571D01*
X122626285Y-96718380D01*
X123435809Y-96194571D02*
X123102476Y-96194571D01*
X123102476Y-96718380D02*
X123102476Y-95718380D01*
X123578666Y-95718380D01*
X141660619Y-92686380D02*
X141660619Y-92114952D01*
X141660619Y-92400666D02*
X142660619Y-92400666D01*
X142517761Y-92305428D01*
X142422523Y-92210190D01*
X142374904Y-92114952D01*
X142660619Y-93305428D02*
X142660619Y-93400666D01*
X142613000Y-93495904D01*
X142565380Y-93543523D01*
X142470142Y-93591142D01*
X142279666Y-93638761D01*
X142041571Y-93638761D01*
X141851095Y-93591142D01*
X141755857Y-93543523D01*
X141708238Y-93495904D01*
X141660619Y-93400666D01*
X141660619Y-93305428D01*
X141708238Y-93210190D01*
X141755857Y-93162571D01*
X141851095Y-93114952D01*
X142041571Y-93067333D01*
X142279666Y-93067333D01*
X142470142Y-93114952D01*
X142565380Y-93162571D01*
X142613000Y-93210190D01*
X142660619Y-93305428D01*
X142660619Y-94257809D02*
X142660619Y-94353047D01*
X142613000Y-94448285D01*
X142565380Y-94495904D01*
X142470142Y-94543523D01*
X142279666Y-94591142D01*
X142041571Y-94591142D01*
X141851095Y-94543523D01*
X141755857Y-94495904D01*
X141708238Y-94448285D01*
X141660619Y-94353047D01*
X141660619Y-94257809D01*
X141708238Y-94162571D01*
X141755857Y-94114952D01*
X141851095Y-94067333D01*
X142041571Y-94019714D01*
X142279666Y-94019714D01*
X142470142Y-94067333D01*
X142565380Y-94114952D01*
X142613000Y-94162571D01*
X142660619Y-94257809D01*
X142327285Y-95019714D02*
X141660619Y-95019714D01*
X142232047Y-95019714D02*
X142279666Y-95067333D01*
X142327285Y-95162571D01*
X142327285Y-95305428D01*
X142279666Y-95400666D01*
X142184428Y-95448285D01*
X141660619Y-95448285D01*
X142184428Y-96257809D02*
X142184428Y-95924476D01*
X141660619Y-95924476D02*
X142660619Y-95924476D01*
X142660619Y-96400666D01*
X164727142Y-86288619D02*
X164774761Y-86241000D01*
X164870000Y-86193380D01*
X165108095Y-86193380D01*
X165203333Y-86241000D01*
X165250952Y-86288619D01*
X165298571Y-86383857D01*
X165298571Y-86479095D01*
X165250952Y-86621952D01*
X164679523Y-87193380D01*
X165298571Y-87193380D01*
X165917619Y-86193380D02*
X166012857Y-86193380D01*
X166108095Y-86241000D01*
X166155714Y-86288619D01*
X166203333Y-86383857D01*
X166250952Y-86574333D01*
X166250952Y-86812428D01*
X166203333Y-87002904D01*
X166155714Y-87098142D01*
X166108095Y-87145761D01*
X166012857Y-87193380D01*
X165917619Y-87193380D01*
X165822380Y-87145761D01*
X165774761Y-87098142D01*
X165727142Y-87002904D01*
X165679523Y-86812428D01*
X165679523Y-86574333D01*
X165727142Y-86383857D01*
X165774761Y-86288619D01*
X165822380Y-86241000D01*
X165917619Y-86193380D01*
X166679523Y-86526714D02*
X166679523Y-87526714D01*
X166679523Y-86574333D02*
X166774761Y-86526714D01*
X166965238Y-86526714D01*
X167060476Y-86574333D01*
X167108095Y-86621952D01*
X167155714Y-86717190D01*
X167155714Y-87002904D01*
X167108095Y-87098142D01*
X167060476Y-87145761D01*
X166965238Y-87193380D01*
X166774761Y-87193380D01*
X166679523Y-87145761D01*
X167917619Y-86669571D02*
X167584285Y-86669571D01*
X167584285Y-87193380D02*
X167584285Y-86193380D01*
X168060476Y-86193380D01*
X159139142Y-86288619D02*
X159186761Y-86241000D01*
X159282000Y-86193380D01*
X159520095Y-86193380D01*
X159615333Y-86241000D01*
X159662952Y-86288619D01*
X159710571Y-86383857D01*
X159710571Y-86479095D01*
X159662952Y-86621952D01*
X159091523Y-87193380D01*
X159710571Y-87193380D01*
X160329619Y-86193380D02*
X160424857Y-86193380D01*
X160520095Y-86241000D01*
X160567714Y-86288619D01*
X160615333Y-86383857D01*
X160662952Y-86574333D01*
X160662952Y-86812428D01*
X160615333Y-87002904D01*
X160567714Y-87098142D01*
X160520095Y-87145761D01*
X160424857Y-87193380D01*
X160329619Y-87193380D01*
X160234380Y-87145761D01*
X160186761Y-87098142D01*
X160139142Y-87002904D01*
X160091523Y-86812428D01*
X160091523Y-86574333D01*
X160139142Y-86383857D01*
X160186761Y-86288619D01*
X160234380Y-86241000D01*
X160329619Y-86193380D01*
X161091523Y-86526714D02*
X161091523Y-87526714D01*
X161091523Y-86574333D02*
X161186761Y-86526714D01*
X161377238Y-86526714D01*
X161472476Y-86574333D01*
X161520095Y-86621952D01*
X161567714Y-86717190D01*
X161567714Y-87002904D01*
X161520095Y-87098142D01*
X161472476Y-87145761D01*
X161377238Y-87193380D01*
X161186761Y-87193380D01*
X161091523Y-87145761D01*
X162329619Y-86669571D02*
X161996285Y-86669571D01*
X161996285Y-87193380D02*
X161996285Y-86193380D01*
X162472476Y-86193380D01*
X160853523Y-72207380D02*
X160282095Y-72207380D01*
X160567809Y-72207380D02*
X160567809Y-71207380D01*
X160472571Y-71350238D01*
X160377333Y-71445476D01*
X160282095Y-71493095D01*
X161282095Y-72207380D02*
X161282095Y-71207380D01*
X161377333Y-71826428D02*
X161663047Y-72207380D01*
X161663047Y-71540714D02*
X161282095Y-71921666D01*
X162044000Y-72207380D02*
X162282095Y-72207380D01*
X162282095Y-72016904D01*
X162186857Y-71969285D01*
X162091619Y-71874047D01*
X162044000Y-71731190D01*
X162044000Y-71493095D01*
X162091619Y-71350238D01*
X162186857Y-71255000D01*
X162329714Y-71207380D01*
X162520190Y-71207380D01*
X162663047Y-71255000D01*
X162758285Y-71350238D01*
X162805904Y-71493095D01*
X162805904Y-71731190D01*
X162758285Y-71874047D01*
X162663047Y-71969285D01*
X162567809Y-72016904D01*
X162567809Y-72207380D01*
X162805904Y-72207380D01*
X160853523Y-69286380D02*
X160282095Y-69286380D01*
X160567809Y-69286380D02*
X160567809Y-68286380D01*
X160472571Y-68429238D01*
X160377333Y-68524476D01*
X160282095Y-68572095D01*
X161282095Y-69286380D02*
X161282095Y-68286380D01*
X161377333Y-68905428D02*
X161663047Y-69286380D01*
X161663047Y-68619714D02*
X161282095Y-69000666D01*
X162044000Y-69286380D02*
X162282095Y-69286380D01*
X162282095Y-69095904D01*
X162186857Y-69048285D01*
X162091619Y-68953047D01*
X162044000Y-68810190D01*
X162044000Y-68572095D01*
X162091619Y-68429238D01*
X162186857Y-68334000D01*
X162329714Y-68286380D01*
X162520190Y-68286380D01*
X162663047Y-68334000D01*
X162758285Y-68429238D01*
X162805904Y-68572095D01*
X162805904Y-68810190D01*
X162758285Y-68953047D01*
X162663047Y-69048285D01*
X162567809Y-69095904D01*
X162567809Y-69286380D01*
X162805904Y-69286380D01*
X117292380Y-124737666D02*
X117292380Y-125309095D01*
X117292380Y-125023380D02*
X116292380Y-125023380D01*
X116435238Y-125118619D01*
X116530476Y-125213857D01*
X116578095Y-125309095D01*
X116292380Y-124118619D02*
X116292380Y-124023380D01*
X116340000Y-123928142D01*
X116387619Y-123880523D01*
X116482857Y-123832904D01*
X116673333Y-123785285D01*
X116911428Y-123785285D01*
X117101904Y-123832904D01*
X117197142Y-123880523D01*
X117244761Y-123928142D01*
X117292380Y-124023380D01*
X117292380Y-124118619D01*
X117244761Y-124213857D01*
X117197142Y-124261476D01*
X117101904Y-124309095D01*
X116911428Y-124356714D01*
X116673333Y-124356714D01*
X116482857Y-124309095D01*
X116387619Y-124261476D01*
X116340000Y-124213857D01*
X116292380Y-124118619D01*
X117292380Y-123356714D02*
X116292380Y-123356714D01*
X116911428Y-123261476D02*
X117292380Y-122975761D01*
X116625714Y-122975761D02*
X117006666Y-123356714D01*
X117292380Y-122594809D02*
X117292380Y-122356714D01*
X117101904Y-122356714D01*
X117054285Y-122451952D01*
X116959047Y-122547190D01*
X116816190Y-122594809D01*
X116578095Y-122594809D01*
X116435238Y-122547190D01*
X116340000Y-122451952D01*
X116292380Y-122309095D01*
X116292380Y-122118619D01*
X116340000Y-121975761D01*
X116435238Y-121880523D01*
X116578095Y-121832904D01*
X116816190Y-121832904D01*
X116959047Y-121880523D01*
X117054285Y-121975761D01*
X117101904Y-122071000D01*
X117292380Y-122071000D01*
X117292380Y-121832904D01*
X122372380Y-133691238D02*
X122372380Y-134262666D01*
X122372380Y-133976952D02*
X121372380Y-133976952D01*
X121515238Y-134072190D01*
X121610476Y-134167428D01*
X121658095Y-134262666D01*
X121705714Y-132834095D02*
X122372380Y-132834095D01*
X121705714Y-133262666D02*
X122229523Y-133262666D01*
X122324761Y-133215047D01*
X122372380Y-133119809D01*
X122372380Y-132976952D01*
X122324761Y-132881714D01*
X122277142Y-132834095D01*
X121848571Y-132024571D02*
X121848571Y-132357904D01*
X122372380Y-132357904D02*
X121372380Y-132357904D01*
X121372380Y-131881714D01*
X125293380Y-133691238D02*
X125293380Y-134262666D01*
X125293380Y-133976952D02*
X124293380Y-133976952D01*
X124436238Y-134072190D01*
X124531476Y-134167428D01*
X124579095Y-134262666D01*
X124626714Y-132834095D02*
X125293380Y-132834095D01*
X124626714Y-133262666D02*
X125150523Y-133262666D01*
X125245761Y-133215047D01*
X125293380Y-133119809D01*
X125293380Y-132976952D01*
X125245761Y-132881714D01*
X125198142Y-132834095D01*
X124769571Y-132024571D02*
X124769571Y-132357904D01*
X125293380Y-132357904D02*
X124293380Y-132357904D01*
X124293380Y-131881714D01*
X143216380Y-123412142D02*
X143216380Y-123602619D01*
X143264000Y-123697857D01*
X143311619Y-123745476D01*
X143454476Y-123840714D01*
X143644952Y-123888333D01*
X144025904Y-123888333D01*
X144121142Y-123840714D01*
X144168761Y-123793095D01*
X144216380Y-123697857D01*
X144216380Y-123507380D01*
X144168761Y-123412142D01*
X144121142Y-123364523D01*
X144025904Y-123316904D01*
X143787809Y-123316904D01*
X143692571Y-123364523D01*
X143644952Y-123412142D01*
X143597333Y-123507380D01*
X143597333Y-123697857D01*
X143644952Y-123793095D01*
X143692571Y-123840714D01*
X143787809Y-123888333D01*
X143644952Y-122745476D02*
X143597333Y-122840714D01*
X143549714Y-122888333D01*
X143454476Y-122935952D01*
X143406857Y-122935952D01*
X143311619Y-122888333D01*
X143264000Y-122840714D01*
X143216380Y-122745476D01*
X143216380Y-122555000D01*
X143264000Y-122459761D01*
X143311619Y-122412142D01*
X143406857Y-122364523D01*
X143454476Y-122364523D01*
X143549714Y-122412142D01*
X143597333Y-122459761D01*
X143644952Y-122555000D01*
X143644952Y-122745476D01*
X143692571Y-122840714D01*
X143740190Y-122888333D01*
X143835428Y-122935952D01*
X144025904Y-122935952D01*
X144121142Y-122888333D01*
X144168761Y-122840714D01*
X144216380Y-122745476D01*
X144216380Y-122555000D01*
X144168761Y-122459761D01*
X144121142Y-122412142D01*
X144025904Y-122364523D01*
X143835428Y-122364523D01*
X143740190Y-122412142D01*
X143692571Y-122459761D01*
X143644952Y-122555000D01*
X144216380Y-121983571D02*
X144216380Y-121745476D01*
X144025904Y-121745476D01*
X143978285Y-121840714D01*
X143883047Y-121935952D01*
X143740190Y-121983571D01*
X143502095Y-121983571D01*
X143359238Y-121935952D01*
X143264000Y-121840714D01*
X143216380Y-121697857D01*
X143216380Y-121507380D01*
X143264000Y-121364523D01*
X143359238Y-121269285D01*
X143502095Y-121221666D01*
X143740190Y-121221666D01*
X143883047Y-121269285D01*
X143978285Y-121364523D01*
X144025904Y-121459761D01*
X144216380Y-121459761D01*
X144216380Y-121221666D01*
X141168380Y-123594666D02*
X141168380Y-124166095D01*
X141168380Y-123880380D02*
X140168380Y-123880380D01*
X140311238Y-123975619D01*
X140406476Y-124070857D01*
X140454095Y-124166095D01*
X141168380Y-123166095D02*
X140168380Y-123166095D01*
X140787428Y-123070857D02*
X141168380Y-122785142D01*
X140501714Y-122785142D02*
X140882666Y-123166095D01*
X140168380Y-121880380D02*
X140168380Y-122356571D01*
X140644571Y-122404190D01*
X140596952Y-122356571D01*
X140549333Y-122261333D01*
X140549333Y-122023238D01*
X140596952Y-121928000D01*
X140644571Y-121880380D01*
X140739809Y-121832761D01*
X140977904Y-121832761D01*
X141073142Y-121880380D01*
X141120761Y-121928000D01*
X141168380Y-122023238D01*
X141168380Y-122261333D01*
X141120761Y-122356571D01*
X141073142Y-122404190D01*
X141168380Y-121451809D02*
X141168380Y-121213714D01*
X140977904Y-121213714D01*
X140930285Y-121308952D01*
X140835047Y-121404190D01*
X140692190Y-121451809D01*
X140454095Y-121451809D01*
X140311238Y-121404190D01*
X140216000Y-121308952D01*
X140168380Y-121166095D01*
X140168380Y-120975619D01*
X140216000Y-120832761D01*
X140311238Y-120737523D01*
X140454095Y-120689904D01*
X140692190Y-120689904D01*
X140835047Y-120737523D01*
X140930285Y-120832761D01*
X140977904Y-120928000D01*
X141168380Y-120928000D01*
X141168380Y-120689904D01*
X137120380Y-123412142D02*
X137120380Y-123602619D01*
X137168000Y-123697857D01*
X137215619Y-123745476D01*
X137358476Y-123840714D01*
X137548952Y-123888333D01*
X137929904Y-123888333D01*
X138025142Y-123840714D01*
X138072761Y-123793095D01*
X138120380Y-123697857D01*
X138120380Y-123507380D01*
X138072761Y-123412142D01*
X138025142Y-123364523D01*
X137929904Y-123316904D01*
X137691809Y-123316904D01*
X137596571Y-123364523D01*
X137548952Y-123412142D01*
X137501333Y-123507380D01*
X137501333Y-123697857D01*
X137548952Y-123793095D01*
X137596571Y-123840714D01*
X137691809Y-123888333D01*
X137548952Y-122745476D02*
X137501333Y-122840714D01*
X137453714Y-122888333D01*
X137358476Y-122935952D01*
X137310857Y-122935952D01*
X137215619Y-122888333D01*
X137168000Y-122840714D01*
X137120380Y-122745476D01*
X137120380Y-122555000D01*
X137168000Y-122459761D01*
X137215619Y-122412142D01*
X137310857Y-122364523D01*
X137358476Y-122364523D01*
X137453714Y-122412142D01*
X137501333Y-122459761D01*
X137548952Y-122555000D01*
X137548952Y-122745476D01*
X137596571Y-122840714D01*
X137644190Y-122888333D01*
X137739428Y-122935952D01*
X137929904Y-122935952D01*
X138025142Y-122888333D01*
X138072761Y-122840714D01*
X138120380Y-122745476D01*
X138120380Y-122555000D01*
X138072761Y-122459761D01*
X138025142Y-122412142D01*
X137929904Y-122364523D01*
X137739428Y-122364523D01*
X137644190Y-122412142D01*
X137596571Y-122459761D01*
X137548952Y-122555000D01*
X138120380Y-121983571D02*
X138120380Y-121745476D01*
X137929904Y-121745476D01*
X137882285Y-121840714D01*
X137787047Y-121935952D01*
X137644190Y-121983571D01*
X137406095Y-121983571D01*
X137263238Y-121935952D01*
X137168000Y-121840714D01*
X137120380Y-121697857D01*
X137120380Y-121507380D01*
X137168000Y-121364523D01*
X137263238Y-121269285D01*
X137406095Y-121221666D01*
X137644190Y-121221666D01*
X137787047Y-121269285D01*
X137882285Y-121364523D01*
X137929904Y-121459761D01*
X138120380Y-121459761D01*
X138120380Y-121221666D01*
X135199380Y-123594666D02*
X135199380Y-124166095D01*
X135199380Y-123880380D02*
X134199380Y-123880380D01*
X134342238Y-123975619D01*
X134437476Y-124070857D01*
X134485095Y-124166095D01*
X134199380Y-122975619D02*
X134199380Y-122880380D01*
X134247000Y-122785142D01*
X134294619Y-122737523D01*
X134389857Y-122689904D01*
X134580333Y-122642285D01*
X134818428Y-122642285D01*
X135008904Y-122689904D01*
X135104142Y-122737523D01*
X135151761Y-122785142D01*
X135199380Y-122880380D01*
X135199380Y-122975619D01*
X135151761Y-123070857D01*
X135104142Y-123118476D01*
X135008904Y-123166095D01*
X134818428Y-123213714D01*
X134580333Y-123213714D01*
X134389857Y-123166095D01*
X134294619Y-123118476D01*
X134247000Y-123070857D01*
X134199380Y-122975619D01*
X135199380Y-122213714D02*
X134199380Y-122213714D01*
X134818428Y-122118476D02*
X135199380Y-121832761D01*
X134532714Y-121832761D02*
X134913666Y-122213714D01*
X135199380Y-121451809D02*
X135199380Y-121213714D01*
X135008904Y-121213714D01*
X134961285Y-121308952D01*
X134866047Y-121404190D01*
X134723190Y-121451809D01*
X134485095Y-121451809D01*
X134342238Y-121404190D01*
X134247000Y-121308952D01*
X134199380Y-121166095D01*
X134199380Y-120975619D01*
X134247000Y-120832761D01*
X134342238Y-120737523D01*
X134485095Y-120689904D01*
X134723190Y-120689904D01*
X134866047Y-120737523D01*
X134961285Y-120832761D01*
X135008904Y-120928000D01*
X135199380Y-120928000D01*
X135199380Y-120689904D01*
X162536333Y-110180380D02*
X161964904Y-110180380D01*
X162250619Y-110180380D02*
X162250619Y-109180380D01*
X162155380Y-109323238D01*
X162060142Y-109418476D01*
X161964904Y-109466095D01*
X163155380Y-109180380D02*
X163250619Y-109180380D01*
X163345857Y-109228000D01*
X163393476Y-109275619D01*
X163441095Y-109370857D01*
X163488714Y-109561333D01*
X163488714Y-109799428D01*
X163441095Y-109989904D01*
X163393476Y-110085142D01*
X163345857Y-110132761D01*
X163250619Y-110180380D01*
X163155380Y-110180380D01*
X163060142Y-110132761D01*
X163012523Y-110085142D01*
X162964904Y-109989904D01*
X162917285Y-109799428D01*
X162917285Y-109561333D01*
X162964904Y-109370857D01*
X163012523Y-109275619D01*
X163060142Y-109228000D01*
X163155380Y-109180380D01*
X163917285Y-110180380D02*
X163917285Y-109180380D01*
X164012523Y-109799428D02*
X164298238Y-110180380D01*
X164298238Y-109513714D02*
X163917285Y-109894666D01*
X164679190Y-110180380D02*
X164917285Y-110180380D01*
X164917285Y-109989904D01*
X164822047Y-109942285D01*
X164726809Y-109847047D01*
X164679190Y-109704190D01*
X164679190Y-109466095D01*
X164726809Y-109323238D01*
X164822047Y-109228000D01*
X164964904Y-109180380D01*
X165155380Y-109180380D01*
X165298238Y-109228000D01*
X165393476Y-109323238D01*
X165441095Y-109466095D01*
X165441095Y-109704190D01*
X165393476Y-109847047D01*
X165298238Y-109942285D01*
X165203000Y-109989904D01*
X165203000Y-110180380D01*
X165441095Y-110180380D01*
X162028333Y-127452380D02*
X161456904Y-127452380D01*
X161742619Y-127452380D02*
X161742619Y-126452380D01*
X161647380Y-126595238D01*
X161552142Y-126690476D01*
X161456904Y-126738095D01*
X162647380Y-126452380D02*
X162742619Y-126452380D01*
X162837857Y-126500000D01*
X162885476Y-126547619D01*
X162933095Y-126642857D01*
X162980714Y-126833333D01*
X162980714Y-127071428D01*
X162933095Y-127261904D01*
X162885476Y-127357142D01*
X162837857Y-127404761D01*
X162742619Y-127452380D01*
X162647380Y-127452380D01*
X162552142Y-127404761D01*
X162504523Y-127357142D01*
X162456904Y-127261904D01*
X162409285Y-127071428D01*
X162409285Y-126833333D01*
X162456904Y-126642857D01*
X162504523Y-126547619D01*
X162552142Y-126500000D01*
X162647380Y-126452380D01*
X163409285Y-127452380D02*
X163409285Y-126452380D01*
X163504523Y-127071428D02*
X163790238Y-127452380D01*
X163790238Y-126785714D02*
X163409285Y-127166666D01*
X164171190Y-127452380D02*
X164409285Y-127452380D01*
X164409285Y-127261904D01*
X164314047Y-127214285D01*
X164218809Y-127119047D01*
X164171190Y-126976190D01*
X164171190Y-126738095D01*
X164218809Y-126595238D01*
X164314047Y-126500000D01*
X164456904Y-126452380D01*
X164647380Y-126452380D01*
X164790238Y-126500000D01*
X164885476Y-126595238D01*
X164933095Y-126738095D01*
X164933095Y-126976190D01*
X164885476Y-127119047D01*
X164790238Y-127214285D01*
X164695000Y-127261904D01*
X164695000Y-127452380D01*
X164933095Y-127452380D01*
X150598333Y-127452380D02*
X150026904Y-127452380D01*
X150312619Y-127452380D02*
X150312619Y-126452380D01*
X150217380Y-126595238D01*
X150122142Y-126690476D01*
X150026904Y-126738095D01*
X151217380Y-126452380D02*
X151312619Y-126452380D01*
X151407857Y-126500000D01*
X151455476Y-126547619D01*
X151503095Y-126642857D01*
X151550714Y-126833333D01*
X151550714Y-127071428D01*
X151503095Y-127261904D01*
X151455476Y-127357142D01*
X151407857Y-127404761D01*
X151312619Y-127452380D01*
X151217380Y-127452380D01*
X151122142Y-127404761D01*
X151074523Y-127357142D01*
X151026904Y-127261904D01*
X150979285Y-127071428D01*
X150979285Y-126833333D01*
X151026904Y-126642857D01*
X151074523Y-126547619D01*
X151122142Y-126500000D01*
X151217380Y-126452380D01*
X151979285Y-127452380D02*
X151979285Y-126452380D01*
X152074523Y-127071428D02*
X152360238Y-127452380D01*
X152360238Y-126785714D02*
X151979285Y-127166666D01*
X152741190Y-127452380D02*
X152979285Y-127452380D01*
X152979285Y-127261904D01*
X152884047Y-127214285D01*
X152788809Y-127119047D01*
X152741190Y-126976190D01*
X152741190Y-126738095D01*
X152788809Y-126595238D01*
X152884047Y-126500000D01*
X153026904Y-126452380D01*
X153217380Y-126452380D01*
X153360238Y-126500000D01*
X153455476Y-126595238D01*
X153503095Y-126738095D01*
X153503095Y-126976190D01*
X153455476Y-127119047D01*
X153360238Y-127214285D01*
X153265000Y-127261904D01*
X153265000Y-127452380D01*
X153503095Y-127452380D01*
X150503095Y-123864714D02*
X150503095Y-124531380D01*
X150265000Y-123483761D02*
X150026904Y-124198047D01*
X150645952Y-124198047D01*
X151026904Y-124531380D02*
X151026904Y-123531380D01*
X151122142Y-124150428D02*
X151407857Y-124531380D01*
X151407857Y-123864714D02*
X151026904Y-124245666D01*
X151741190Y-123531380D02*
X152407857Y-123531380D01*
X151979285Y-124531380D01*
X152741190Y-124531380D02*
X152979285Y-124531380D01*
X152979285Y-124340904D01*
X152884047Y-124293285D01*
X152788809Y-124198047D01*
X152741190Y-124055190D01*
X152741190Y-123817095D01*
X152788809Y-123674238D01*
X152884047Y-123579000D01*
X153026904Y-123531380D01*
X153217380Y-123531380D01*
X153360238Y-123579000D01*
X153455476Y-123674238D01*
X153503095Y-123817095D01*
X153503095Y-124055190D01*
X153455476Y-124198047D01*
X153360238Y-124293285D01*
X153265000Y-124340904D01*
X153265000Y-124531380D01*
X153503095Y-124531380D01*
X150503095Y-120816714D02*
X150503095Y-121483380D01*
X150265000Y-120435761D02*
X150026904Y-121150047D01*
X150645952Y-121150047D01*
X151026904Y-121483380D02*
X151026904Y-120483380D01*
X151122142Y-121102428D02*
X151407857Y-121483380D01*
X151407857Y-120816714D02*
X151026904Y-121197666D01*
X151741190Y-120483380D02*
X152407857Y-120483380D01*
X151979285Y-121483380D01*
X152741190Y-121483380D02*
X152979285Y-121483380D01*
X152979285Y-121292904D01*
X152884047Y-121245285D01*
X152788809Y-121150047D01*
X152741190Y-121007190D01*
X152741190Y-120769095D01*
X152788809Y-120626238D01*
X152884047Y-120531000D01*
X153026904Y-120483380D01*
X153217380Y-120483380D01*
X153360238Y-120531000D01*
X153455476Y-120626238D01*
X153503095Y-120769095D01*
X153503095Y-121007190D01*
X153455476Y-121150047D01*
X153360238Y-121245285D01*
X153265000Y-121292904D01*
X153265000Y-121483380D01*
X153503095Y-121483380D01*
X150503095Y-117641714D02*
X150503095Y-118308380D01*
X150265000Y-117260761D02*
X150026904Y-117975047D01*
X150645952Y-117975047D01*
X151026904Y-118308380D02*
X151026904Y-117308380D01*
X151122142Y-117927428D02*
X151407857Y-118308380D01*
X151407857Y-117641714D02*
X151026904Y-118022666D01*
X151741190Y-117308380D02*
X152407857Y-117308380D01*
X151979285Y-118308380D01*
X152741190Y-118308380D02*
X152979285Y-118308380D01*
X152979285Y-118117904D01*
X152884047Y-118070285D01*
X152788809Y-117975047D01*
X152741190Y-117832190D01*
X152741190Y-117594095D01*
X152788809Y-117451238D01*
X152884047Y-117356000D01*
X153026904Y-117308380D01*
X153217380Y-117308380D01*
X153360238Y-117356000D01*
X153455476Y-117451238D01*
X153503095Y-117594095D01*
X153503095Y-117832190D01*
X153455476Y-117975047D01*
X153360238Y-118070285D01*
X153265000Y-118117904D01*
X153265000Y-118308380D01*
X153503095Y-118308380D01*
X115371619Y-88471666D02*
X116371619Y-88471666D01*
X116371619Y-88852619D01*
X116324000Y-88947857D01*
X116276380Y-88995476D01*
X116181142Y-89043095D01*
X116038285Y-89043095D01*
X115943047Y-88995476D01*
X115895428Y-88947857D01*
X115847809Y-88852619D01*
X115847809Y-88471666D01*
X115466857Y-90043095D02*
X115419238Y-89995476D01*
X115371619Y-89852619D01*
X115371619Y-89757380D01*
X115419238Y-89614523D01*
X115514476Y-89519285D01*
X115609714Y-89471666D01*
X115800190Y-89424047D01*
X115943047Y-89424047D01*
X116133523Y-89471666D01*
X116228761Y-89519285D01*
X116324000Y-89614523D01*
X116371619Y-89757380D01*
X116371619Y-89852619D01*
X116324000Y-89995476D01*
X116276380Y-90043095D01*
X116371619Y-90662142D02*
X116371619Y-90852619D01*
X116324000Y-90947857D01*
X116228761Y-91043095D01*
X116038285Y-91090714D01*
X115704952Y-91090714D01*
X115514476Y-91043095D01*
X115419238Y-90947857D01*
X115371619Y-90852619D01*
X115371619Y-90662142D01*
X115419238Y-90566904D01*
X115514476Y-90471666D01*
X115704952Y-90424047D01*
X116038285Y-90424047D01*
X116228761Y-90471666D01*
X116324000Y-90566904D01*
X116371619Y-90662142D01*
X115371619Y-91519285D02*
X116371619Y-91519285D01*
X115371619Y-92090714D01*
X116371619Y-92090714D01*
X115371619Y-92566904D02*
X116371619Y-92566904D01*
X115371619Y-93138333D01*
X116371619Y-93138333D01*
D11*
X130492500Y-64579500D02*
X130501700Y-66230500D01*
X130949700Y-64198500D02*
X130492500Y-64579500D01*
X130949700Y-70802500D02*
X130492500Y-70421500D01*
X124764800Y-68770500D02*
X122919800Y-68770500D01*
X124764800Y-66230500D02*
X124764800Y-68770500D01*
X122923300Y-66230500D02*
X124764800Y-66230500D01*
D10*
X168616380Y-119959238D02*
X169425904Y-119959238D01*
X169521142Y-119911619D01*
X169568761Y-119864000D01*
X169616380Y-119768761D01*
X169616380Y-119578285D01*
X169568761Y-119483047D01*
X169521142Y-119435428D01*
X169425904Y-119387809D01*
X168616380Y-119387809D01*
X169330666Y-118959238D02*
X169330666Y-118483047D01*
X169616380Y-119054476D02*
X168616380Y-118721142D01*
X169616380Y-118387809D01*
X169616380Y-117483047D02*
X169140190Y-117816380D01*
X169616380Y-118054476D02*
X168616380Y-118054476D01*
X168616380Y-117673523D01*
X168664000Y-117578285D01*
X168711619Y-117530666D01*
X168806857Y-117483047D01*
X168949714Y-117483047D01*
X169044952Y-117530666D01*
X169092571Y-117578285D01*
X169140190Y-117673523D01*
X169140190Y-118054476D01*
X168616380Y-117197333D02*
X168616380Y-116625904D01*
X169616380Y-116911619D02*
X168616380Y-116911619D01*
X152360380Y-137295380D02*
X152027047Y-136819190D01*
X151788952Y-137295380D02*
X151788952Y-136295380D01*
X152169904Y-136295380D01*
X152265142Y-136343000D01*
X152312761Y-136390619D01*
X152360380Y-136485857D01*
X152360380Y-136628714D01*
X152312761Y-136723952D01*
X152265142Y-136771571D01*
X152169904Y-136819190D01*
X151788952Y-136819190D01*
X152741333Y-137247761D02*
X152884190Y-137295380D01*
X153122285Y-137295380D01*
X153217523Y-137247761D01*
X153265142Y-137200142D01*
X153312761Y-137104904D01*
X153312761Y-137009666D01*
X153265142Y-136914428D01*
X153217523Y-136866809D01*
X153122285Y-136819190D01*
X152931809Y-136771571D01*
X152836571Y-136723952D01*
X152788952Y-136676333D01*
X152741333Y-136581095D01*
X152741333Y-136485857D01*
X152788952Y-136390619D01*
X152836571Y-136343000D01*
X152931809Y-136295380D01*
X153169904Y-136295380D01*
X153312761Y-136343000D01*
X153598476Y-136295380D02*
X154169904Y-136295380D01*
X153884190Y-137295380D02*
X153884190Y-136295380D01*
X151527047Y-138945380D02*
X151193714Y-138469190D01*
X150955619Y-138945380D02*
X150955619Y-137945380D01*
X151336571Y-137945380D01*
X151431809Y-137993000D01*
X151479428Y-138040619D01*
X151527047Y-138135857D01*
X151527047Y-138278714D01*
X151479428Y-138373952D01*
X151431809Y-138421571D01*
X151336571Y-138469190D01*
X150955619Y-138469190D01*
X151908000Y-138659666D02*
X152384190Y-138659666D01*
X151812761Y-138945380D02*
X152146095Y-137945380D01*
X152479428Y-138945380D01*
X152812761Y-138945380D02*
X152812761Y-137945380D01*
X153050857Y-137945380D01*
X153193714Y-137993000D01*
X153288952Y-138088238D01*
X153336571Y-138183476D01*
X153384190Y-138373952D01*
X153384190Y-138516809D01*
X153336571Y-138707285D01*
X153288952Y-138802523D01*
X153193714Y-138897761D01*
X153050857Y-138945380D01*
X152812761Y-138945380D01*
X153812761Y-138945380D02*
X153812761Y-137945380D01*
X154479428Y-137945380D02*
X154669904Y-137945380D01*
X154765142Y-137993000D01*
X154860380Y-138088238D01*
X154908000Y-138278714D01*
X154908000Y-138612047D01*
X154860380Y-138802523D01*
X154765142Y-138897761D01*
X154669904Y-138945380D01*
X154479428Y-138945380D01*
X154384190Y-138897761D01*
X154288952Y-138802523D01*
X154241333Y-138612047D01*
X154241333Y-138278714D01*
X154288952Y-138088238D01*
X154384190Y-137993000D01*
X154479428Y-137945380D01*
X162266380Y-137295380D02*
X161933047Y-136819190D01*
X161694952Y-137295380D02*
X161694952Y-136295380D01*
X162075904Y-136295380D01*
X162171142Y-136343000D01*
X162218761Y-136390619D01*
X162266380Y-136485857D01*
X162266380Y-136628714D01*
X162218761Y-136723952D01*
X162171142Y-136771571D01*
X162075904Y-136819190D01*
X161694952Y-136819190D01*
X162647333Y-137247761D02*
X162790190Y-137295380D01*
X163028285Y-137295380D01*
X163123523Y-137247761D01*
X163171142Y-137200142D01*
X163218761Y-137104904D01*
X163218761Y-137009666D01*
X163171142Y-136914428D01*
X163123523Y-136866809D01*
X163028285Y-136819190D01*
X162837809Y-136771571D01*
X162742571Y-136723952D01*
X162694952Y-136676333D01*
X162647333Y-136581095D01*
X162647333Y-136485857D01*
X162694952Y-136390619D01*
X162742571Y-136343000D01*
X162837809Y-136295380D01*
X163075904Y-136295380D01*
X163218761Y-136343000D01*
X163504476Y-136295380D02*
X164075904Y-136295380D01*
X163790190Y-137295380D02*
X163790190Y-136295380D01*
X161290190Y-138945380D02*
X161290190Y-137945380D01*
X161623523Y-138659666D01*
X161956857Y-137945380D01*
X161956857Y-138945380D01*
X162385428Y-138659666D02*
X162861619Y-138659666D01*
X162290190Y-138945380D02*
X162623523Y-137945380D01*
X162956857Y-138945380D01*
X163290190Y-138945380D02*
X163290190Y-137945380D01*
X163766380Y-138945380D02*
X163766380Y-137945380D01*
X164337809Y-138945380D01*
X164337809Y-137945380D01*
D11*
X157543500Y-112268000D02*
G75*
G03*
X157543500Y-112268000I-63500J0D01*
G01*
X137858500Y-112268000D02*
G75*
G03*
X137858500Y-112268000I-63500J0D01*
G01*
D10*
X121539047Y-136215428D02*
X122300952Y-136215428D01*
X117475047Y-136215428D02*
X118236952Y-136215428D01*
X117856000Y-136596380D02*
X117856000Y-135834476D01*
X139247904Y-78176380D02*
X139247904Y-77176380D01*
X139486000Y-77176380D01*
X139628857Y-77224000D01*
X139724095Y-77319238D01*
X139771714Y-77414476D01*
X139819333Y-77604952D01*
X139819333Y-77747809D01*
X139771714Y-77938285D01*
X139724095Y-78033523D01*
X139628857Y-78128761D01*
X139486000Y-78176380D01*
X139247904Y-78176380D01*
X140247904Y-78176380D02*
X140247904Y-77176380D01*
X140676476Y-78128761D02*
X140819333Y-78176380D01*
X141057428Y-78176380D01*
X141152666Y-78128761D01*
X141200285Y-78081142D01*
X141247904Y-77985904D01*
X141247904Y-77890666D01*
X141200285Y-77795428D01*
X141152666Y-77747809D01*
X141057428Y-77700190D01*
X140866952Y-77652571D01*
X140771714Y-77604952D01*
X140724095Y-77557333D01*
X140676476Y-77462095D01*
X140676476Y-77366857D01*
X140724095Y-77271619D01*
X140771714Y-77224000D01*
X140866952Y-77176380D01*
X141105047Y-77176380D01*
X141247904Y-77224000D01*
X141676476Y-78176380D02*
X141676476Y-77176380D01*
X142057428Y-77176380D01*
X142152666Y-77224000D01*
X142200285Y-77271619D01*
X142247904Y-77366857D01*
X142247904Y-77509714D01*
X142200285Y-77604952D01*
X142152666Y-77652571D01*
X142057428Y-77700190D01*
X141676476Y-77700190D01*
X143152666Y-78176380D02*
X142676476Y-78176380D01*
X142676476Y-77176380D01*
X143438380Y-77890666D02*
X143914571Y-77890666D01*
X143343142Y-78176380D02*
X143676476Y-77176380D01*
X144009809Y-78176380D01*
X144533619Y-77700190D02*
X144533619Y-78176380D01*
X144200285Y-77176380D02*
X144533619Y-77700190D01*
X144866952Y-77176380D01*
X162568000Y-118062285D02*
X162520380Y-118157523D01*
X162520380Y-118300380D01*
X162568000Y-118443238D01*
X162663238Y-118538476D01*
X162758476Y-118586095D01*
X162948952Y-118633714D01*
X163091809Y-118633714D01*
X163282285Y-118586095D01*
X163377523Y-118538476D01*
X163472761Y-118443238D01*
X163520380Y-118300380D01*
X163520380Y-118205142D01*
X163472761Y-118062285D01*
X163425142Y-118014666D01*
X163091809Y-118014666D01*
X163091809Y-118205142D01*
X163520380Y-117586095D02*
X162520380Y-117586095D01*
X162520380Y-117205142D01*
X162568000Y-117109904D01*
X162615619Y-117062285D01*
X162710857Y-117014666D01*
X162853714Y-117014666D01*
X162948952Y-117062285D01*
X162996571Y-117109904D01*
X163044190Y-117205142D01*
X163044190Y-117586095D01*
X163472761Y-116633714D02*
X163520380Y-116490857D01*
X163520380Y-116252761D01*
X163472761Y-116157523D01*
X163425142Y-116109904D01*
X163329904Y-116062285D01*
X163234666Y-116062285D01*
X163139428Y-116109904D01*
X163091809Y-116157523D01*
X163044190Y-116252761D01*
X162996571Y-116443238D01*
X162948952Y-116538476D01*
X162901333Y-116586095D01*
X162806095Y-116633714D01*
X162710857Y-116633714D01*
X162615619Y-116586095D01*
X162568000Y-116538476D01*
X162520380Y-116443238D01*
X162520380Y-116205142D01*
X162568000Y-116062285D01*
X117205523Y-137596571D02*
X117348380Y-137644190D01*
X117396000Y-137691809D01*
X117443619Y-137787047D01*
X117443619Y-137929904D01*
X117396000Y-138025142D01*
X117348380Y-138072761D01*
X117253142Y-138120380D01*
X116872190Y-138120380D01*
X116872190Y-137120380D01*
X117205523Y-137120380D01*
X117300761Y-137168000D01*
X117348380Y-137215619D01*
X117396000Y-137310857D01*
X117396000Y-137406095D01*
X117348380Y-137501333D01*
X117300761Y-137548952D01*
X117205523Y-137596571D01*
X116872190Y-137596571D01*
X117824571Y-137834666D02*
X118300761Y-137834666D01*
X117729333Y-138120380D02*
X118062666Y-137120380D01*
X118396000Y-138120380D01*
X118586476Y-137120380D02*
X119157904Y-137120380D01*
X118872190Y-138120380D02*
X118872190Y-137120380D01*
X119253142Y-138215619D02*
X120015047Y-138215619D01*
X120824571Y-138025142D02*
X120776952Y-138072761D01*
X120634095Y-138120380D01*
X120538857Y-138120380D01*
X120396000Y-138072761D01*
X120300761Y-137977523D01*
X120253142Y-137882285D01*
X120205523Y-137691809D01*
X120205523Y-137548952D01*
X120253142Y-137358476D01*
X120300761Y-137263238D01*
X120396000Y-137168000D01*
X120538857Y-137120380D01*
X120634095Y-137120380D01*
X120776952Y-137168000D01*
X120824571Y-137215619D01*
X121443619Y-137120380D02*
X121634095Y-137120380D01*
X121729333Y-137168000D01*
X121824571Y-137263238D01*
X121872190Y-137453714D01*
X121872190Y-137787047D01*
X121824571Y-137977523D01*
X121729333Y-138072761D01*
X121634095Y-138120380D01*
X121443619Y-138120380D01*
X121348380Y-138072761D01*
X121253142Y-137977523D01*
X121205523Y-137787047D01*
X121205523Y-137453714D01*
X121253142Y-137263238D01*
X121348380Y-137168000D01*
X121443619Y-137120380D01*
X122300761Y-138120380D02*
X122300761Y-137120380D01*
X122872190Y-138120380D01*
X122872190Y-137120380D01*
X123348380Y-138120380D02*
X123348380Y-137120380D01*
X123919809Y-138120380D01*
X123919809Y-137120380D01*
X148265000Y-115387380D02*
X148265000Y-114387380D01*
X148598333Y-115101666D01*
X148931666Y-114387380D01*
X148931666Y-115387380D01*
X149360238Y-115101666D02*
X149836428Y-115101666D01*
X149265000Y-115387380D02*
X149598333Y-114387380D01*
X149931666Y-115387380D01*
X150265000Y-115387380D02*
X150265000Y-114387380D01*
X150741190Y-115387380D02*
X150741190Y-114387380D01*
X151312619Y-115387380D01*
X151312619Y-114387380D01*
X151550714Y-115482619D02*
X152312619Y-115482619D01*
X152550714Y-115387380D02*
X152550714Y-114387380D01*
X152884047Y-115101666D01*
X153217380Y-114387380D01*
X153217380Y-115387380D01*
X154265000Y-115292142D02*
X154217380Y-115339761D01*
X154074523Y-115387380D01*
X153979285Y-115387380D01*
X153836428Y-115339761D01*
X153741190Y-115244523D01*
X153693571Y-115149285D01*
X153645952Y-114958809D01*
X153645952Y-114815952D01*
X153693571Y-114625476D01*
X153741190Y-114530238D01*
X153836428Y-114435000D01*
X153979285Y-114387380D01*
X154074523Y-114387380D01*
X154217380Y-114435000D01*
X154265000Y-114482619D01*
X154693571Y-114387380D02*
X154693571Y-115196904D01*
X154741190Y-115292142D01*
X154788809Y-115339761D01*
X154884047Y-115387380D01*
X155074523Y-115387380D01*
X155169761Y-115339761D01*
X155217380Y-115292142D01*
X155265000Y-115196904D01*
X155265000Y-114387380D01*
X128849857Y-115641380D02*
X128516523Y-115165190D01*
X128278428Y-115641380D02*
X128278428Y-114641380D01*
X128659380Y-114641380D01*
X128754619Y-114689000D01*
X128802238Y-114736619D01*
X128849857Y-114831857D01*
X128849857Y-114974714D01*
X128802238Y-115069952D01*
X128754619Y-115117571D01*
X128659380Y-115165190D01*
X128278428Y-115165190D01*
X129230809Y-115355666D02*
X129707000Y-115355666D01*
X129135571Y-115641380D02*
X129468904Y-114641380D01*
X129802238Y-115641380D01*
X130135571Y-115641380D02*
X130135571Y-114641380D01*
X130373666Y-114641380D01*
X130516523Y-114689000D01*
X130611761Y-114784238D01*
X130659380Y-114879476D01*
X130707000Y-115069952D01*
X130707000Y-115212809D01*
X130659380Y-115403285D01*
X130611761Y-115498523D01*
X130516523Y-115593761D01*
X130373666Y-115641380D01*
X130135571Y-115641380D01*
X131135571Y-115641380D02*
X131135571Y-114641380D01*
X131802238Y-114641380D02*
X131992714Y-114641380D01*
X132087952Y-114689000D01*
X132183190Y-114784238D01*
X132230809Y-114974714D01*
X132230809Y-115308047D01*
X132183190Y-115498523D01*
X132087952Y-115593761D01*
X131992714Y-115641380D01*
X131802238Y-115641380D01*
X131707000Y-115593761D01*
X131611761Y-115498523D01*
X131564142Y-115308047D01*
X131564142Y-114974714D01*
X131611761Y-114784238D01*
X131707000Y-114689000D01*
X131802238Y-114641380D01*
X132421285Y-115736619D02*
X133183190Y-115736619D01*
X133421285Y-115641380D02*
X133421285Y-114641380D01*
X133754619Y-115355666D01*
X134087952Y-114641380D01*
X134087952Y-115641380D01*
X135135571Y-115546142D02*
X135087952Y-115593761D01*
X134945095Y-115641380D01*
X134849857Y-115641380D01*
X134707000Y-115593761D01*
X134611761Y-115498523D01*
X134564142Y-115403285D01*
X134516523Y-115212809D01*
X134516523Y-115069952D01*
X134564142Y-114879476D01*
X134611761Y-114784238D01*
X134707000Y-114689000D01*
X134849857Y-114641380D01*
X134945095Y-114641380D01*
X135087952Y-114689000D01*
X135135571Y-114736619D01*
X135564142Y-114641380D02*
X135564142Y-115450904D01*
X135611761Y-115546142D01*
X135659380Y-115593761D01*
X135754619Y-115641380D01*
X135945095Y-115641380D01*
X136040333Y-115593761D01*
X136087952Y-115546142D01*
X136135571Y-115450904D01*
X136135571Y-114641380D01*
X162623809Y-55649761D02*
X162766666Y-55697380D01*
X163004761Y-55697380D01*
X163100000Y-55649761D01*
X163147619Y-55602142D01*
X163195238Y-55506904D01*
X163195238Y-55411666D01*
X163147619Y-55316428D01*
X163100000Y-55268809D01*
X163004761Y-55221190D01*
X162814285Y-55173571D01*
X162719047Y-55125952D01*
X162671428Y-55078333D01*
X162623809Y-54983095D01*
X162623809Y-54887857D01*
X162671428Y-54792619D01*
X162719047Y-54745000D01*
X162814285Y-54697380D01*
X163052380Y-54697380D01*
X163195238Y-54745000D01*
X163480952Y-54697380D02*
X164052380Y-54697380D01*
X163766666Y-55697380D02*
X163766666Y-54697380D01*
X164338095Y-55411666D02*
X164814285Y-55411666D01*
X164242857Y-55697380D02*
X164576190Y-54697380D01*
X164909523Y-55697380D01*
X165100000Y-54697380D02*
X165671428Y-54697380D01*
X165385714Y-55697380D02*
X165385714Y-54697380D01*
X166004761Y-54697380D02*
X166004761Y-55506904D01*
X166052380Y-55602142D01*
X166100000Y-55649761D01*
X166195238Y-55697380D01*
X166385714Y-55697380D01*
X166480952Y-55649761D01*
X166528571Y-55602142D01*
X166576190Y-55506904D01*
X166576190Y-54697380D01*
X167004761Y-55649761D02*
X167147619Y-55697380D01*
X167385714Y-55697380D01*
X167480952Y-55649761D01*
X167528571Y-55602142D01*
X167576190Y-55506904D01*
X167576190Y-55411666D01*
X167528571Y-55316428D01*
X167480952Y-55268809D01*
X167385714Y-55221190D01*
X167195238Y-55173571D01*
X167100000Y-55125952D01*
X167052380Y-55078333D01*
X167004761Y-54983095D01*
X167004761Y-54887857D01*
X167052380Y-54792619D01*
X167100000Y-54745000D01*
X167195238Y-54697380D01*
X167433333Y-54697380D01*
X167576190Y-54745000D01*
X156146666Y-55697380D02*
X156146666Y-54697380D01*
X156527619Y-54697380D01*
X156622857Y-54745000D01*
X156670476Y-54792619D01*
X156718095Y-54887857D01*
X156718095Y-55030714D01*
X156670476Y-55125952D01*
X156622857Y-55173571D01*
X156527619Y-55221190D01*
X156146666Y-55221190D01*
X157051428Y-54697380D02*
X157289523Y-55697380D01*
X157480000Y-54983095D01*
X157670476Y-55697380D01*
X157908571Y-54697380D01*
X158860952Y-55697380D02*
X158527619Y-55221190D01*
X158289523Y-55697380D02*
X158289523Y-54697380D01*
X158670476Y-54697380D01*
X158765714Y-54745000D01*
X158813333Y-54792619D01*
X158860952Y-54887857D01*
X158860952Y-55030714D01*
X158813333Y-55125952D01*
X158765714Y-55173571D01*
X158670476Y-55221190D01*
X158289523Y-55221190D01*
X139033714Y-64460380D02*
X138557523Y-64460380D01*
X138557523Y-63460380D01*
X139557523Y-63460380D02*
X139748000Y-63460380D01*
X139843238Y-63508000D01*
X139938476Y-63603238D01*
X139986095Y-63793714D01*
X139986095Y-64127047D01*
X139938476Y-64317523D01*
X139843238Y-64412761D01*
X139748000Y-64460380D01*
X139557523Y-64460380D01*
X139462285Y-64412761D01*
X139367047Y-64317523D01*
X139319428Y-64127047D01*
X139319428Y-63793714D01*
X139367047Y-63603238D01*
X139462285Y-63508000D01*
X139557523Y-63460380D01*
X140986095Y-64460380D02*
X140652761Y-63984190D01*
X140414666Y-64460380D02*
X140414666Y-63460380D01*
X140795619Y-63460380D01*
X140890857Y-63508000D01*
X140938476Y-63555619D01*
X140986095Y-63650857D01*
X140986095Y-63793714D01*
X140938476Y-63888952D01*
X140890857Y-63936571D01*
X140795619Y-63984190D01*
X140414666Y-63984190D01*
X141367047Y-64174666D02*
X141843238Y-64174666D01*
X141271809Y-64460380D02*
X141605142Y-63460380D01*
X141938476Y-64460380D01*
X142033714Y-64555619D02*
X142795619Y-64555619D01*
X143605142Y-64460380D02*
X143271809Y-63984190D01*
X143033714Y-64460380D02*
X143033714Y-63460380D01*
X143414666Y-63460380D01*
X143509904Y-63508000D01*
X143557523Y-63555619D01*
X143605142Y-63650857D01*
X143605142Y-63793714D01*
X143557523Y-63888952D01*
X143509904Y-63936571D01*
X143414666Y-63984190D01*
X143033714Y-63984190D01*
X143986095Y-64174666D02*
X144462285Y-64174666D01*
X143890857Y-64460380D02*
X144224190Y-63460380D01*
X144557523Y-64460380D01*
X144890857Y-64460380D02*
X144890857Y-63460380D01*
X145128952Y-63460380D01*
X145271809Y-63508000D01*
X145367047Y-63603238D01*
X145414666Y-63698476D01*
X145462285Y-63888952D01*
X145462285Y-64031809D01*
X145414666Y-64222285D01*
X145367047Y-64317523D01*
X145271809Y-64412761D01*
X145128952Y-64460380D01*
X144890857Y-64460380D01*
X145890857Y-64460380D02*
X145890857Y-63460380D01*
X146557523Y-63460380D02*
X146748000Y-63460380D01*
X146843238Y-63508000D01*
X146938476Y-63603238D01*
X146986095Y-63793714D01*
X146986095Y-64127047D01*
X146938476Y-64317523D01*
X146843238Y-64412761D01*
X146748000Y-64460380D01*
X146557523Y-64460380D01*
X146462285Y-64412761D01*
X146367047Y-64317523D01*
X146319428Y-64127047D01*
X146319428Y-63793714D01*
X146367047Y-63603238D01*
X146462285Y-63508000D01*
X146557523Y-63460380D01*
X115371619Y-79454666D02*
X116371619Y-79454666D01*
X116371619Y-79835619D01*
X116324000Y-79930857D01*
X116276380Y-79978476D01*
X116181142Y-80026095D01*
X116038285Y-80026095D01*
X115943047Y-79978476D01*
X115895428Y-79930857D01*
X115847809Y-79835619D01*
X115847809Y-79454666D01*
X115466857Y-81026095D02*
X115419238Y-80978476D01*
X115371619Y-80835619D01*
X115371619Y-80740380D01*
X115419238Y-80597523D01*
X115514476Y-80502285D01*
X115609714Y-80454666D01*
X115800190Y-80407047D01*
X115943047Y-80407047D01*
X116133523Y-80454666D01*
X116228761Y-80502285D01*
X116324000Y-80597523D01*
X116371619Y-80740380D01*
X116371619Y-80835619D01*
X116324000Y-80978476D01*
X116276380Y-81026095D01*
X116371619Y-81645142D02*
X116371619Y-81835619D01*
X116324000Y-81930857D01*
X116228761Y-82026095D01*
X116038285Y-82073714D01*
X115704952Y-82073714D01*
X115514476Y-82026095D01*
X115419238Y-81930857D01*
X115371619Y-81835619D01*
X115371619Y-81645142D01*
X115419238Y-81549904D01*
X115514476Y-81454666D01*
X115704952Y-81407047D01*
X116038285Y-81407047D01*
X116228761Y-81454666D01*
X116324000Y-81549904D01*
X116371619Y-81645142D01*
X115371619Y-82502285D02*
X116371619Y-82502285D01*
X115371619Y-83073714D01*
X116371619Y-83073714D01*
X115371619Y-83549904D02*
X116371619Y-83549904D01*
X115371619Y-84121333D01*
X116371619Y-84121333D01*
X115371619Y-66333809D02*
X116371619Y-66333809D01*
X115419238Y-66762380D02*
X115371619Y-66905238D01*
X115371619Y-67143333D01*
X115419238Y-67238571D01*
X115466857Y-67286190D01*
X115562095Y-67333809D01*
X115657333Y-67333809D01*
X115752571Y-67286190D01*
X115800190Y-67238571D01*
X115847809Y-67143333D01*
X115895428Y-66952857D01*
X115943047Y-66857619D01*
X115990666Y-66810000D01*
X116085904Y-66762380D01*
X116181142Y-66762380D01*
X116276380Y-66810000D01*
X116324000Y-66857619D01*
X116371619Y-66952857D01*
X116371619Y-67190952D01*
X116324000Y-67333809D01*
X115371619Y-67762380D02*
X116371619Y-67762380D01*
X116371619Y-68143333D01*
X116324000Y-68238571D01*
X116276380Y-68286190D01*
X116181142Y-68333809D01*
X116038285Y-68333809D01*
X115943047Y-68286190D01*
X115895428Y-68238571D01*
X115847809Y-68143333D01*
X115847809Y-67762380D01*
X119316642Y-61063166D02*
X119792833Y-61063166D01*
X119221404Y-61348880D02*
X119554738Y-60348880D01*
X119888071Y-61348880D01*
X120221404Y-61348880D02*
X120221404Y-60348880D01*
X120792833Y-61348880D01*
X120792833Y-60348880D01*
X121126166Y-60348880D02*
X121697595Y-60348880D01*
X121411880Y-61348880D02*
X121411880Y-60348880D01*
D11*
X130949700Y-70802500D02*
X131711700Y-71437500D01*
X131711700Y-66230500D02*
X131711700Y-62674500D01*
X130949700Y-64198500D02*
X131711700Y-63563500D01*
X131711700Y-68262500D02*
X131711700Y-70167500D01*
X131711700Y-72707500D02*
X131711700Y-68262500D01*
D10*
X131894319Y-69169523D02*
X132370509Y-68836190D01*
X131894319Y-68598095D02*
X132894319Y-68598095D01*
X132894319Y-68979047D01*
X132846700Y-69074285D01*
X132799080Y-69121904D01*
X132703842Y-69169523D01*
X132560985Y-69169523D01*
X132465747Y-69121904D01*
X132418128Y-69074285D01*
X132370509Y-68979047D01*
X132370509Y-68598095D01*
X132180033Y-69550476D02*
X132180033Y-70026666D01*
X131894319Y-69455238D02*
X132894319Y-69788571D01*
X131894319Y-70121904D01*
X131894319Y-70455238D02*
X132894319Y-70455238D01*
X132894319Y-70693333D01*
X132846700Y-70836190D01*
X132751461Y-70931428D01*
X132656223Y-70979047D01*
X132465747Y-71026666D01*
X132322890Y-71026666D01*
X132132414Y-70979047D01*
X132037176Y-70931428D01*
X131941938Y-70836190D01*
X131894319Y-70693333D01*
X131894319Y-70455238D01*
X131894319Y-71455238D02*
X132894319Y-71455238D01*
X132894319Y-72121904D02*
X132894319Y-72312380D01*
X132846700Y-72407619D01*
X132751461Y-72502857D01*
X132560985Y-72550476D01*
X132227652Y-72550476D01*
X132037176Y-72502857D01*
X131941938Y-72407619D01*
X131894319Y-72312380D01*
X131894319Y-72121904D01*
X131941938Y-72026666D01*
X132037176Y-71931428D01*
X132227652Y-71883809D01*
X132560985Y-71883809D01*
X132751461Y-71931428D01*
X132846700Y-72026666D01*
X132894319Y-72121904D01*
X131894319Y-62974285D02*
X132894319Y-62974285D01*
X132180033Y-63307619D01*
X132894319Y-63640952D01*
X131894319Y-63640952D01*
X132180033Y-64069523D02*
X132180033Y-64545714D01*
X131894319Y-63974285D02*
X132894319Y-64307619D01*
X131894319Y-64640952D01*
X131894319Y-64974285D02*
X132894319Y-64974285D01*
X131894319Y-65450476D02*
X132894319Y-65450476D01*
X131894319Y-66021904D01*
X132894319Y-66021904D01*
D11*
X117796000Y-94802000D02*
X122996000Y-94802000D01*
X117796000Y-89662000D02*
X117796000Y-94802000D01*
X122996000Y-87062000D02*
X122996000Y-94802000D01*
X117796000Y-89662000D02*
X120396000Y-89662000D01*
X120396000Y-89662000D02*
X120396000Y-87062000D01*
X120396000Y-87062000D02*
X122996000Y-87062000D01*
X117796000Y-88392000D02*
X117796000Y-87062000D01*
X117796000Y-87062000D02*
X119126000Y-87062000D01*
X126940000Y-113658000D02*
X137220000Y-113658000D01*
X126940000Y-77858000D02*
X126940000Y-113658000D01*
X137220000Y-77858000D02*
X126940000Y-77858000D01*
X137220000Y-113658000D02*
X137220000Y-77858000D01*
X129430000Y-113598000D02*
X131080000Y-113598000D01*
X129430000Y-77918000D02*
X129430000Y-113598000D01*
X134730000Y-77918000D02*
X129430000Y-77918000D01*
X134730000Y-113598000D02*
X134730000Y-77918000D01*
X133080000Y-113598000D02*
X134730000Y-113598000D01*
X131080000Y-113598000D02*
G75*
G02*
X133080000Y-113598000I1000000J0D01*
G01*
X146625000Y-113531000D02*
X156905000Y-113531000D01*
X146625000Y-77731000D02*
X146625000Y-113531000D01*
X156905000Y-77731000D02*
X146625000Y-77731000D01*
X156905000Y-113531000D02*
X156905000Y-77731000D01*
X149115000Y-113471000D02*
X150765000Y-113471000D01*
X149115000Y-77791000D02*
X149115000Y-113471000D01*
X154415000Y-77791000D02*
X149115000Y-77791000D01*
X154415000Y-113471000D02*
X154415000Y-77791000D01*
X152765000Y-113471000D02*
X154415000Y-113471000D01*
X150765000Y-113471000D02*
G75*
G02*
X152765000Y-113471000I1000000J0D01*
G01*
X166420000Y-82789000D02*
X160170000Y-82789000D01*
X166420000Y-77739000D02*
X160170000Y-77739000D01*
X160170000Y-77739000D02*
G75*
G03*
X160170000Y-82789000I0J-2525000D01*
G01*
X166420000Y-77739000D02*
G75*
G02*
X166420000Y-82789000I0J-2525000D01*
G01*
X166370000Y-122234000D02*
X165040000Y-122234000D01*
X165040000Y-122234000D02*
X165040000Y-120904000D01*
X165040000Y-119634000D02*
X165040000Y-114494000D01*
X167700000Y-114494000D02*
X165040000Y-114494000D01*
X167700000Y-119634000D02*
X167700000Y-114494000D01*
X167700000Y-119634000D02*
X165040000Y-119634000D01*
X124714000Y-60106000D02*
X124464000Y-60606000D01*
X124464000Y-60606000D02*
X124964000Y-60606000D01*
X124964000Y-60606000D02*
X124714000Y-60106000D01*
X135184000Y-136354000D02*
X135184000Y-135104000D01*
X133934000Y-136354000D02*
X135184000Y-136354000D01*
X128034000Y-130854000D02*
X131084000Y-130854000D01*
X128034000Y-133804000D02*
X128034000Y-130854000D01*
X127284000Y-133804000D02*
X128034000Y-133804000D01*
X134134000Y-130854000D02*
X131084000Y-130854000D01*
X134134000Y-133804000D02*
X134134000Y-130854000D01*
X134884000Y-133804000D02*
X134134000Y-133804000D01*
X127284000Y-136054000D02*
X129084000Y-136054000D01*
X127284000Y-135304000D02*
X127284000Y-136054000D01*
X129084000Y-135304000D02*
X127284000Y-135304000D01*
X129084000Y-136054000D02*
X129084000Y-135304000D01*
X133084000Y-136054000D02*
X134884000Y-136054000D01*
X133084000Y-135304000D02*
X133084000Y-136054000D01*
X134884000Y-135304000D02*
X133084000Y-135304000D01*
X134884000Y-136054000D02*
X134884000Y-135304000D01*
X130584000Y-136054000D02*
X131584000Y-136054000D01*
X130584000Y-135304000D02*
X130584000Y-136054000D01*
X131584000Y-135304000D02*
X130584000Y-135304000D01*
X131584000Y-136054000D02*
X131584000Y-135304000D01*
X127274000Y-136064000D02*
X134894000Y-136064000D01*
X127274000Y-130094000D02*
X127274000Y-136064000D01*
X134894000Y-130094000D02*
X127274000Y-130094000D01*
X134894000Y-136064000D02*
X134894000Y-130094000D01*
X148190000Y-131620000D02*
X148190000Y-133120000D01*
X149440000Y-135620000D02*
X153940000Y-135620000D01*
X155190000Y-133120000D02*
X155190000Y-131620000D01*
X153940000Y-129120000D02*
X149440000Y-129120000D01*
X148368000Y-125630000D02*
X148368000Y-125960000D01*
X154908000Y-125630000D02*
X148368000Y-125630000D01*
X154908000Y-125960000D02*
X154908000Y-125630000D01*
X148368000Y-128370000D02*
X148368000Y-128040000D01*
X154908000Y-128370000D02*
X148368000Y-128370000D01*
X154908000Y-128040000D02*
X154908000Y-128370000D01*
X127841700Y-71370500D02*
X130501700Y-71370500D01*
X127841700Y-66230500D02*
X127841700Y-71370500D01*
X130501700Y-66230500D02*
X130501700Y-71370500D01*
X127841700Y-66230500D02*
X130501700Y-66230500D01*
X127841700Y-64960500D02*
X127841700Y-63630500D01*
X127841700Y-63630500D02*
X129171700Y-63630500D01*
X122919800Y-71370500D02*
X121589800Y-71370500D01*
X122919800Y-70040500D02*
X122919800Y-71370500D01*
X120319800Y-71370500D02*
X117719800Y-71370500D01*
X120319800Y-68770500D02*
X120319800Y-71370500D01*
X122919800Y-68770500D02*
X120319800Y-68770500D01*
X117719800Y-71370500D02*
X117719800Y-63630500D01*
X122919800Y-68770500D02*
X122919800Y-63630500D01*
X122919800Y-63630500D02*
X117719800Y-63630500D01*
X162373000Y-66227000D02*
X162373000Y-64897000D01*
X163703000Y-66227000D02*
X162373000Y-66227000D01*
X164973000Y-66227000D02*
X164973000Y-63567000D01*
X164973000Y-63567000D02*
X167573000Y-63567000D01*
X164973000Y-66227000D02*
X167573000Y-66227000D01*
X167573000Y-66227000D02*
X167573000Y-63567000D01*
X166116000Y-103117000D02*
X166116000Y-105657000D01*
X163576000Y-103117000D02*
X163576000Y-105657000D01*
X161036000Y-103117000D02*
X161036000Y-105657000D01*
X168696000Y-87227000D02*
X168696000Y-103117000D01*
X158456000Y-87227000D02*
X158456000Y-103117000D01*
X158456000Y-87227000D02*
X168696000Y-87227000D01*
X158456000Y-103117000D02*
X168696000Y-103117000D01*
X123190000Y-113658000D02*
X123190000Y-116198000D01*
X120650000Y-113658000D02*
X120650000Y-116198000D01*
X118110000Y-113658000D02*
X118110000Y-116198000D01*
X125770000Y-97768000D02*
X125770000Y-113658000D01*
X115530000Y-97768000D02*
X115530000Y-113658000D01*
X115530000Y-97768000D02*
X125770000Y-97768000D01*
X115530000Y-113658000D02*
X125770000Y-113658000D01*
X160528000Y-113224000D02*
X161858000Y-113224000D01*
X161858000Y-113224000D02*
X161858000Y-114554000D01*
X161858000Y-115824000D02*
X161858000Y-123504000D01*
X159198000Y-123504000D02*
X161858000Y-123504000D01*
X159198000Y-115824000D02*
X159198000Y-123504000D01*
X159198000Y-115824000D02*
X161858000Y-115824000D01*
X136846000Y-75184000D02*
X136846000Y-73854000D01*
X136846000Y-73854000D02*
X138176000Y-73854000D01*
X139446000Y-73854000D02*
X147126000Y-73854000D01*
X147126000Y-76514000D02*
X147126000Y-73854000D01*
X139446000Y-76514000D02*
X147126000Y-76514000D01*
X139446000Y-76514000D02*
X139446000Y-73854000D01*
X122949600Y-130439800D02*
X123264600Y-130439800D01*
X120524600Y-130439800D02*
X120839600Y-130439800D01*
X122949600Y-135679800D02*
X123264600Y-135679800D01*
X120524600Y-135679800D02*
X120839600Y-135679800D01*
X123264600Y-135679800D02*
X123264600Y-130439800D01*
X120524600Y-135679800D02*
X120524600Y-130439800D01*
X126338000Y-130436000D02*
X126338000Y-135676000D01*
X123598000Y-130436000D02*
X123598000Y-135676000D01*
X126338000Y-130436000D02*
X126023000Y-130436000D01*
X123913000Y-130436000D02*
X123598000Y-130436000D01*
X126338000Y-135676000D02*
X126023000Y-135676000D01*
X123913000Y-135676000D02*
X123598000Y-135676000D01*
X139580000Y-134647000D02*
X144820000Y-134647000D01*
X139580000Y-137387000D02*
X144820000Y-137387000D01*
X139580000Y-134647000D02*
X139580000Y-134962000D01*
X139580000Y-137072000D02*
X139580000Y-137387000D01*
X144820000Y-134647000D02*
X144820000Y-134962000D01*
X144820000Y-137072000D02*
X144820000Y-137387000D01*
X168970000Y-86079000D02*
X163730000Y-86079000D01*
X168970000Y-83339000D02*
X163730000Y-83339000D01*
X168970000Y-86079000D02*
X168970000Y-83339000D01*
X163730000Y-86079000D02*
X163730000Y-83339000D01*
X158015000Y-86079000D02*
X158015000Y-83339000D01*
X163255000Y-86079000D02*
X163255000Y-83339000D01*
X163255000Y-83339000D02*
X158015000Y-83339000D01*
X163255000Y-86079000D02*
X158015000Y-86079000D01*
X123661500Y-97382000D02*
X123661500Y-92142000D01*
X126401500Y-97382000D02*
X126401500Y-92142000D01*
X123661500Y-97382000D02*
X126401500Y-97382000D01*
X123661500Y-92142000D02*
X126401500Y-92142000D01*
X143156000Y-91634000D02*
X145896000Y-91634000D01*
X143156000Y-96874000D02*
X145896000Y-96874000D01*
X145896000Y-96874000D02*
X145896000Y-91634000D01*
X143156000Y-96874000D02*
X143156000Y-91634000D01*
X118672000Y-125892000D02*
X121612000Y-125892000D01*
X118672000Y-125652000D02*
X121612000Y-125652000D01*
X118672000Y-125772000D02*
X121612000Y-125772000D01*
X121612000Y-121232000D02*
X121482000Y-121232000D01*
X121612000Y-126672000D02*
X121612000Y-121232000D01*
X121482000Y-126672000D02*
X121612000Y-126672000D01*
X118672000Y-121232000D02*
X118802000Y-121232000D01*
X118672000Y-126672000D02*
X118672000Y-121232000D01*
X118802000Y-126672000D02*
X118672000Y-126672000D01*
X122358000Y-126672000D02*
X122228000Y-126672000D01*
X122228000Y-126672000D02*
X122228000Y-121232000D01*
X122228000Y-121232000D02*
X122358000Y-121232000D01*
X125038000Y-126672000D02*
X125168000Y-126672000D01*
X125168000Y-126672000D02*
X125168000Y-121232000D01*
X125168000Y-121232000D02*
X125038000Y-121232000D01*
X122228000Y-125772000D02*
X125168000Y-125772000D01*
X122228000Y-125652000D02*
X125168000Y-125652000D01*
X122228000Y-125892000D02*
X125168000Y-125892000D01*
X160294000Y-60854000D02*
X160294000Y-57764000D01*
X160234000Y-59309000D02*
G75*
G03*
X160234000Y-59309000I-2500000J0D01*
G01*
X154744000Y-59308538D02*
G75*
G03*
X160294000Y-60853830I2990000J-462D01*
G01*
X154744000Y-59309462D02*
G75*
G02*
X160294000Y-57764170I2990000J462D01*
G01*
X167600000Y-59309000D02*
G75*
G03*
X167600000Y-59309000I-2500000J0D01*
G01*
X167660000Y-60854000D02*
X167660000Y-57764000D01*
X162110000Y-59309462D02*
G75*
G02*
X167660000Y-57764170I2990000J462D01*
G01*
X162110000Y-59308538D02*
G75*
G03*
X167660000Y-60853830I2990000J-462D01*
G01*
X117796000Y-85658000D02*
X122996000Y-85658000D01*
X117796000Y-80518000D02*
X117796000Y-85658000D01*
X122996000Y-77918000D02*
X122996000Y-85658000D01*
X117796000Y-80518000D02*
X120396000Y-80518000D01*
X120396000Y-80518000D02*
X120396000Y-77918000D01*
X120396000Y-77918000D02*
X122996000Y-77918000D01*
X117796000Y-79248000D02*
X117796000Y-77918000D01*
X117796000Y-77918000D02*
X119126000Y-77918000D01*
X118210000Y-120428000D02*
X117880000Y-120428000D01*
X118210000Y-126968000D02*
X118210000Y-120428000D01*
X117880000Y-126968000D02*
X118210000Y-126968000D01*
X115470000Y-120428000D02*
X115800000Y-120428000D01*
X115470000Y-126968000D02*
X115470000Y-120428000D01*
X115800000Y-126968000D02*
X115470000Y-126968000D01*
X166973000Y-110768000D02*
X166973000Y-111098000D01*
X166973000Y-111098000D02*
X160433000Y-111098000D01*
X160433000Y-111098000D02*
X160433000Y-110768000D01*
X166973000Y-108688000D02*
X166973000Y-108358000D01*
X166973000Y-108358000D02*
X160433000Y-108358000D01*
X160433000Y-108358000D02*
X160433000Y-108688000D01*
X142086000Y-119094500D02*
X141756000Y-119094500D01*
X142086000Y-125634500D02*
X142086000Y-119094500D01*
X141756000Y-125634500D02*
X142086000Y-125634500D01*
X139346000Y-119094500D02*
X139676000Y-119094500D01*
X139346000Y-125634500D02*
X139346000Y-119094500D01*
X139676000Y-125634500D02*
X139346000Y-125634500D01*
X142724000Y-125634500D02*
X142394000Y-125634500D01*
X142394000Y-125634500D02*
X142394000Y-119094500D01*
X142394000Y-119094500D02*
X142724000Y-119094500D01*
X144804000Y-125634500D02*
X145134000Y-125634500D01*
X145134000Y-125634500D02*
X145134000Y-119094500D01*
X145134000Y-119094500D02*
X144804000Y-119094500D01*
X139038000Y-119094500D02*
X138708000Y-119094500D01*
X139038000Y-125634500D02*
X139038000Y-119094500D01*
X138708000Y-125634500D02*
X139038000Y-125634500D01*
X136298000Y-119094500D02*
X136628000Y-119094500D01*
X136298000Y-125634500D02*
X136298000Y-119094500D01*
X136628000Y-125634500D02*
X136298000Y-125634500D01*
X135660000Y-119094500D02*
X135990000Y-119094500D01*
X135990000Y-119094500D02*
X135990000Y-125634500D01*
X135990000Y-125634500D02*
X135660000Y-125634500D01*
X133580000Y-119094500D02*
X133250000Y-119094500D01*
X133250000Y-119094500D02*
X133250000Y-125634500D01*
X133250000Y-125634500D02*
X133580000Y-125634500D01*
X148368000Y-116486000D02*
X148368000Y-116816000D01*
X154908000Y-116486000D02*
X148368000Y-116486000D01*
X154908000Y-116816000D02*
X154908000Y-116486000D01*
X148368000Y-119226000D02*
X148368000Y-118896000D01*
X154908000Y-119226000D02*
X148368000Y-119226000D01*
X154908000Y-118896000D02*
X154908000Y-119226000D01*
X166338000Y-128370000D02*
X166338000Y-128040000D01*
X159798000Y-128370000D02*
X166338000Y-128370000D01*
X159798000Y-128040000D02*
X159798000Y-128370000D01*
X166338000Y-125630000D02*
X166338000Y-125960000D01*
X159798000Y-125630000D02*
X166338000Y-125630000D01*
X159798000Y-125960000D02*
X159798000Y-125630000D01*
X154908000Y-121944000D02*
X154908000Y-122274000D01*
X154908000Y-122274000D02*
X148368000Y-122274000D01*
X148368000Y-122274000D02*
X148368000Y-121944000D01*
X154908000Y-119864000D02*
X154908000Y-119534000D01*
X154908000Y-119534000D02*
X148368000Y-119534000D01*
X148368000Y-119534000D02*
X148368000Y-119864000D01*
X148368000Y-122582000D02*
X148368000Y-122912000D01*
X154908000Y-122582000D02*
X148368000Y-122582000D01*
X154908000Y-122912000D02*
X154908000Y-122582000D01*
X148368000Y-125322000D02*
X148368000Y-124992000D01*
X154908000Y-125322000D02*
X148368000Y-125322000D01*
X154908000Y-124992000D02*
X154908000Y-125322000D01*
X158274000Y-67667000D02*
X158274000Y-67337000D01*
X158274000Y-67337000D02*
X164814000Y-67337000D01*
X164814000Y-67337000D02*
X164814000Y-67667000D01*
X158274000Y-69747000D02*
X158274000Y-70077000D01*
X158274000Y-70077000D02*
X164814000Y-70077000D01*
X164814000Y-70077000D02*
X164814000Y-69747000D01*
X158274000Y-70715000D02*
X158274000Y-70385000D01*
X158274000Y-70385000D02*
X164814000Y-70385000D01*
X164814000Y-70385000D02*
X164814000Y-70715000D01*
X158274000Y-72795000D02*
X158274000Y-73125000D01*
X158274000Y-73125000D02*
X164814000Y-73125000D01*
X164814000Y-73125000D02*
X164814000Y-72795000D01*
X142700000Y-99549000D02*
X141200000Y-99549000D01*
X138700000Y-100799000D02*
X138700000Y-105299000D01*
X141200000Y-106549000D02*
X142700000Y-106549000D01*
X145200000Y-105299000D02*
X145200000Y-100799000D01*
X165370000Y-129120000D02*
X160870000Y-129120000D01*
X166620000Y-133120000D02*
X166620000Y-131620000D01*
X160870000Y-135620000D02*
X165370000Y-135620000D01*
X159620000Y-131620000D02*
X159620000Y-133120000D01*
X155134000Y-63567000D02*
X155134000Y-66227000D01*
X157734000Y-63567000D02*
X155134000Y-63567000D01*
X157734000Y-66227000D02*
X155134000Y-66227000D01*
X157734000Y-63567000D02*
X157734000Y-66227000D01*
X159004000Y-63567000D02*
X160334000Y-63567000D01*
X160334000Y-63567000D02*
X160334000Y-64897000D01*
X115498000Y-131232500D02*
X115498000Y-134832500D01*
X115509522Y-131194022D02*
G75*
G02*
X119948000Y-133032500I1838478J-1838478D01*
G01*
X115509522Y-134870978D02*
G75*
G03*
X119948000Y-133032500I1838478J1838478D01*
G01*
X150848000Y-71758000D02*
X151748000Y-71758000D01*
X150848000Y-72108000D02*
X150848000Y-71758000D01*
X134648000Y-55908000D02*
X134648000Y-56308000D01*
X150848000Y-55908000D02*
X134648000Y-55908000D01*
X150848000Y-56308000D02*
X150848000Y-55908000D01*
X134648000Y-72108000D02*
X134648000Y-71708000D01*
X150848000Y-72108000D02*
X134648000Y-72108000D01*
D10*
X162972809Y-80240190D02*
X162972809Y-80716380D01*
X162639476Y-79716380D02*
X162972809Y-80240190D01*
X163306142Y-79716380D01*
X164163285Y-80716380D02*
X163591857Y-80716380D01*
X163877571Y-80716380D02*
X163877571Y-79716380D01*
X163782333Y-79859238D01*
X163687095Y-79954476D01*
X163591857Y-80002095D01*
X159805619Y-106775238D02*
X159758000Y-106870476D01*
X159662761Y-106965714D01*
X159519904Y-107108571D01*
X159472285Y-107203809D01*
X159472285Y-107299047D01*
X159710380Y-107251428D02*
X159662761Y-107346666D01*
X159567523Y-107441904D01*
X159377047Y-107489523D01*
X159043714Y-107489523D01*
X158853238Y-107441904D01*
X158758000Y-107346666D01*
X158710380Y-107251428D01*
X158710380Y-107060952D01*
X158758000Y-106965714D01*
X158853238Y-106870476D01*
X159043714Y-106822857D01*
X159377047Y-106822857D01*
X159567523Y-106870476D01*
X159662761Y-106965714D01*
X159710380Y-107060952D01*
X159710380Y-107251428D01*
X158805619Y-106441904D02*
X158758000Y-106394285D01*
X158710380Y-106299047D01*
X158710380Y-106060952D01*
X158758000Y-105965714D01*
X158805619Y-105918095D01*
X158900857Y-105870476D01*
X158996095Y-105870476D01*
X159138952Y-105918095D01*
X159710380Y-106489523D01*
X159710380Y-105870476D01*
X116879619Y-117316238D02*
X116832000Y-117411476D01*
X116736761Y-117506714D01*
X116593904Y-117649571D01*
X116546285Y-117744809D01*
X116546285Y-117840047D01*
X116784380Y-117792428D02*
X116736761Y-117887666D01*
X116641523Y-117982904D01*
X116451047Y-118030523D01*
X116117714Y-118030523D01*
X115927238Y-117982904D01*
X115832000Y-117887666D01*
X115784380Y-117792428D01*
X115784380Y-117601952D01*
X115832000Y-117506714D01*
X115927238Y-117411476D01*
X116117714Y-117363857D01*
X116451047Y-117363857D01*
X116641523Y-117411476D01*
X116736761Y-117506714D01*
X116784380Y-117601952D01*
X116784380Y-117792428D01*
X116784380Y-116411476D02*
X116784380Y-116982904D01*
X116784380Y-116697190D02*
X115784380Y-116697190D01*
X115927238Y-116792428D01*
X116022476Y-116887666D01*
X116070095Y-116982904D01*
X142033333Y-136374142D02*
X141985714Y-136421761D01*
X141842857Y-136469380D01*
X141747619Y-136469380D01*
X141604761Y-136421761D01*
X141509523Y-136326523D01*
X141461904Y-136231285D01*
X141414285Y-136040809D01*
X141414285Y-135897952D01*
X141461904Y-135707476D01*
X141509523Y-135612238D01*
X141604761Y-135517000D01*
X141747619Y-135469380D01*
X141842857Y-135469380D01*
X141985714Y-135517000D01*
X142033333Y-135564619D01*
X142366666Y-135469380D02*
X142985714Y-135469380D01*
X142652380Y-135850333D01*
X142795238Y-135850333D01*
X142890476Y-135897952D01*
X142938095Y-135945571D01*
X142985714Y-136040809D01*
X142985714Y-136278904D01*
X142938095Y-136374142D01*
X142890476Y-136421761D01*
X142795238Y-136469380D01*
X142509523Y-136469380D01*
X142414285Y-136421761D01*
X142366666Y-136374142D01*
X120594380Y-124436095D02*
X119594380Y-124436095D01*
X119594380Y-124198000D01*
X119642000Y-124055142D01*
X119737238Y-123959904D01*
X119832476Y-123912285D01*
X120022952Y-123864666D01*
X120165809Y-123864666D01*
X120356285Y-123912285D01*
X120451523Y-123959904D01*
X120546761Y-124055142D01*
X120594380Y-124198000D01*
X120594380Y-124436095D01*
X120594380Y-122912285D02*
X120594380Y-123483714D01*
X120594380Y-123198000D02*
X119594380Y-123198000D01*
X119737238Y-123293238D01*
X119832476Y-123388476D01*
X119880095Y-123483714D01*
X124150380Y-124436095D02*
X123150380Y-124436095D01*
X123150380Y-124198000D01*
X123198000Y-124055142D01*
X123293238Y-123959904D01*
X123388476Y-123912285D01*
X123578952Y-123864666D01*
X123721809Y-123864666D01*
X123912285Y-123912285D01*
X124007523Y-123959904D01*
X124102761Y-124055142D01*
X124150380Y-124198000D01*
X124150380Y-124436095D01*
X123245619Y-123483714D02*
X123198000Y-123436095D01*
X123150380Y-123340857D01*
X123150380Y-123102761D01*
X123198000Y-123007523D01*
X123245619Y-122959904D01*
X123340857Y-122912285D01*
X123436095Y-122912285D01*
X123578952Y-122959904D01*
X124150380Y-123531333D01*
X124150380Y-122912285D01*
X118324380Y-133794404D02*
X119133904Y-133794404D01*
X119229142Y-133746785D01*
X119276761Y-133699166D01*
X119324380Y-133603928D01*
X119324380Y-133413452D01*
X119276761Y-133318214D01*
X119229142Y-133270595D01*
X119133904Y-133222976D01*
X118324380Y-133222976D01*
X119324380Y-132222976D02*
X119324380Y-132794404D01*
X119324380Y-132508690D02*
X118324380Y-132508690D01*
X118467238Y-132603928D01*
X118562476Y-132699166D01*
X118610095Y-132794404D01*
M02*
