G04 #@! TF.GenerationSoftware,KiCad,Pcbnew,(5.1.7)-1*
G04 #@! TF.CreationDate,2021-01-29T19:27:48+01:00*
G04 #@! TF.ProjectId,powiloc,706f7769-6c6f-4632-9e6b-696361645f70,rev?*
G04 #@! TF.SameCoordinates,Original*
G04 #@! TF.FileFunction,Soldermask,Bot*
G04 #@! TF.FilePolarity,Negative*
%FSLAX46Y46*%
G04 Gerber Fmt 4.6, Leading zero omitted, Abs format (unit mm)*
G04 Created by KiCad (PCBNEW (5.1.7)-1) date 2021-01-29 19:27:48*
%MOMM*%
%LPD*%
G01*
G04 APERTURE LIST*
%ADD10O,1.700000X1.700000*%
%ADD11R,1.700000X1.700000*%
%ADD12O,1.600000X1.600000*%
%ADD13R,1.600000X1.600000*%
%ADD14C,1.500000*%
%ADD15R,1.500000X5.080000*%
%ADD16O,1.700000X2.000000*%
%ADD17C,2.000000*%
%ADD18C,1.600000*%
%ADD19O,1.905000X2.000000*%
%ADD20R,1.905000X2.000000*%
%ADD21O,3.500000X3.500000*%
%ADD22R,2.200000X2.200000*%
%ADD23O,2.200000X2.200000*%
%ADD24R,1.800000X1.800000*%
%ADD25C,1.800000*%
%ADD26O,1.500000X1.050000*%
%ADD27R,1.500000X1.050000*%
G04 APERTURE END LIST*
D10*
X121666000Y-93472000D03*
X119126000Y-93472000D03*
X121666000Y-90932000D03*
X119126000Y-90932000D03*
X121666000Y-88392000D03*
D11*
X119126000Y-88392000D03*
D12*
X128270000Y-112268000D03*
X135890000Y-79248000D03*
X128270000Y-109728000D03*
X135890000Y-81788000D03*
X128270000Y-107188000D03*
X135890000Y-84328000D03*
X128270000Y-104648000D03*
X135890000Y-86868000D03*
X128270000Y-102108000D03*
X135890000Y-89408000D03*
X128270000Y-99568000D03*
X135890000Y-91948000D03*
X128270000Y-97028000D03*
X135890000Y-94488000D03*
X128270000Y-94488000D03*
X135890000Y-97028000D03*
X128270000Y-91948000D03*
X135890000Y-99568000D03*
X128270000Y-89408000D03*
X135890000Y-102108000D03*
X128270000Y-86868000D03*
X135890000Y-104648000D03*
X128270000Y-84328000D03*
X135890000Y-107188000D03*
X128270000Y-81788000D03*
X135890000Y-109728000D03*
X128270000Y-79248000D03*
D13*
X135890000Y-112268000D03*
D12*
X147955000Y-112141000D03*
X155575000Y-79121000D03*
X147955000Y-109601000D03*
X155575000Y-81661000D03*
X147955000Y-107061000D03*
X155575000Y-84201000D03*
X147955000Y-104521000D03*
X155575000Y-86741000D03*
X147955000Y-101981000D03*
X155575000Y-89281000D03*
X147955000Y-99441000D03*
X155575000Y-91821000D03*
X147955000Y-96901000D03*
X155575000Y-94361000D03*
X147955000Y-94361000D03*
X155575000Y-96901000D03*
X147955000Y-91821000D03*
X155575000Y-99441000D03*
X147955000Y-89281000D03*
X155575000Y-101981000D03*
X147955000Y-86741000D03*
X155575000Y-104521000D03*
X147955000Y-84201000D03*
X155575000Y-107061000D03*
X147955000Y-81661000D03*
X155575000Y-109601000D03*
X147955000Y-79121000D03*
D13*
X155575000Y-112141000D03*
D14*
X160855000Y-80264000D03*
X165735000Y-80264000D03*
D10*
X166370000Y-115824000D03*
X166370000Y-118364000D03*
D11*
X166370000Y-120904000D03*
D15*
X120464000Y-56896000D03*
X128964000Y-56896000D03*
D16*
X129834000Y-133604000D03*
G36*
G01*
X133184000Y-132854000D02*
X133184000Y-134354000D01*
G75*
G02*
X132934000Y-134604000I-250000J0D01*
G01*
X131734000Y-134604000D01*
G75*
G02*
X131484000Y-134354000I0J250000D01*
G01*
X131484000Y-132854000D01*
G75*
G02*
X131734000Y-132604000I250000J0D01*
G01*
X132934000Y-132604000D01*
G75*
G02*
X133184000Y-132854000I0J-250000D01*
G01*
G37*
D17*
X148440000Y-134620000D03*
X148440000Y-130120000D03*
X154940000Y-134620000D03*
X154940000Y-130120000D03*
D12*
X147828000Y-127000000D03*
D18*
X155448000Y-127000000D03*
D11*
X129171700Y-64960500D03*
D10*
X129171700Y-67500500D03*
X129171700Y-70040500D03*
X119049800Y-64960500D03*
X121589800Y-64960500D03*
X119049800Y-67500500D03*
X121589800Y-67500500D03*
X119049800Y-70040500D03*
D11*
X121589800Y-70040500D03*
D10*
X166243000Y-64897000D03*
D11*
X163703000Y-64897000D03*
D19*
X166116000Y-106807000D03*
X163576000Y-106807000D03*
D20*
X161036000Y-106807000D03*
D21*
X163576000Y-90147000D03*
D19*
X123190000Y-117348000D03*
X120650000Y-117348000D03*
D20*
X118110000Y-117348000D03*
D21*
X120650000Y-100688000D03*
D10*
X160528000Y-122174000D03*
X160528000Y-119634000D03*
X160528000Y-117094000D03*
D11*
X160528000Y-114554000D03*
D10*
X145796000Y-75184000D03*
X143256000Y-75184000D03*
X140716000Y-75184000D03*
D11*
X138176000Y-75184000D03*
D18*
X121894600Y-135559800D03*
X121894600Y-130559800D03*
X124968000Y-135556000D03*
X124968000Y-130556000D03*
X144700000Y-136017000D03*
X139700000Y-136017000D03*
X165100000Y-84709000D03*
X167600000Y-84709000D03*
X161885000Y-84709000D03*
X159385000Y-84709000D03*
X125031500Y-93512000D03*
X125031500Y-96012000D03*
X144526000Y-95504000D03*
X144526000Y-93004000D03*
D22*
X120142000Y-127762000D03*
D23*
X120142000Y-120142000D03*
X123698000Y-120142000D03*
D22*
X123698000Y-127762000D03*
D24*
X159004000Y-59309000D03*
D25*
X156464000Y-59309000D03*
X163830000Y-59309000D03*
D24*
X166370000Y-59309000D03*
D10*
X121666000Y-84328000D03*
X119126000Y-84328000D03*
X121666000Y-81788000D03*
X119126000Y-81788000D03*
X121666000Y-79248000D03*
D11*
X119126000Y-79248000D03*
D18*
X116840000Y-127508000D03*
D12*
X116840000Y-119888000D03*
X159893000Y-109728000D03*
D18*
X167513000Y-109728000D03*
X140716000Y-126174500D03*
D12*
X140716000Y-118554500D03*
X143764000Y-118554500D03*
D18*
X143764000Y-126174500D03*
X137668000Y-126174500D03*
D12*
X137668000Y-118554500D03*
X134620000Y-126174500D03*
D18*
X134620000Y-118554500D03*
X155448000Y-117856000D03*
D12*
X147828000Y-117856000D03*
D18*
X159258000Y-127000000D03*
D12*
X166878000Y-127000000D03*
X147828000Y-120904000D03*
D18*
X155448000Y-120904000D03*
X155448000Y-123952000D03*
D12*
X147828000Y-123952000D03*
X165354000Y-68707000D03*
D18*
X157734000Y-68707000D03*
D12*
X165354000Y-71755000D03*
D18*
X157734000Y-71755000D03*
D17*
X144200000Y-106299000D03*
X139700000Y-106299000D03*
X144200000Y-99799000D03*
X139700000Y-99799000D03*
X159870000Y-134620000D03*
X159870000Y-130120000D03*
X166370000Y-134620000D03*
X166370000Y-130120000D03*
D10*
X156464000Y-64897000D03*
D11*
X159004000Y-64897000D03*
D26*
X117348000Y-133032500D03*
X117348000Y-134302500D03*
D27*
X117348000Y-131762500D03*
M02*
